<svg width="369" height="65" viewBox="0 0 369 65" fill="none" xmlns="http://www.w3.org/2000/svg">
<path d="M336.39 1.71984C344.424 1.86496 352.081 5.15846 357.711 10.8916C363.342 16.6247 366.496 24.3392 366.496 32.3748C366.496 40.4105 363.342 48.125 357.711 53.8581C352.081 59.5912 344.424 62.8847 336.39 63.0298H31.8501C23.8158 62.8847 16.1595 59.5912 10.529 53.8581C4.89848 48.125 1.74377 40.4105 1.74377 32.3748C1.74377 24.3392 4.89848 16.6247 10.529 10.8916C16.1595 5.15846 23.8158 1.86496 31.8501 1.71984H336.39ZM336.39 0.719844H31.8501C23.5468 0.867384 15.6335 4.26943 9.81365 10.1936C3.99382 16.1177 0.73291 24.0903 0.73291 32.3948C0.73291 40.6994 3.99382 48.6719 9.81365 54.5961C15.6335 60.5203 23.5468 63.9223 31.8501 64.0698H336.39C340.597 64.1446 344.777 63.3805 348.685 61.8223C352.594 60.264 356.153 57.9428 359.154 54.9941C362.156 52.0454 364.54 48.5283 366.167 44.6481C367.795 40.768 368.633 36.6025 368.633 32.3948C368.633 28.1872 367.795 24.0217 366.167 20.1416C364.54 16.2614 362.156 12.7443 359.154 9.79559C356.153 6.84688 352.594 4.52564 348.685 2.96739C344.777 1.40913 340.597 0.645091 336.39 0.719844Z" fill="url(#paint0_linear_1_117)"/>
<defs>
<linearGradient id="paint0_linear_1_117" x1="0.180082" y1="32.3698" x2="368.07" y2="32.3698" gradientUnits="userSpaceOnUse">
<stop stop-color="#A4742B"/>
<stop offset="0.31" stop-color="#C7A655"/>
<stop offset="0.62" stop-color="#E5D17A"/>
<stop offset="0.86" stop-color="#F7EC91"/>
<stop offset="1" stop-color="#FEF699"/>
</linearGradient>
</defs>
</svg>
